<?xml version="1.0" encoding="utf-8"?>
<!-- Generator: Adobe Illustrator 24.0.1, SVG Export Plug-In . SVG Version: 6.00 Build 0)  -->
<svg version="1.1" id="Layer_2_1_" xmlns="http://www.w3.org/2000/svg" xmlns:xlink="http://www.w3.org/1999/xlink" x="0px" y="0px"
	 viewBox="0 0 64 64" style="enable-background:new 0 0 64 64;" xml:space="preserve">
<g>
	<path d="M62.9,53.3L47.5,37.9c-1.5-1.5-4-1.5-5.5,0l-1,1l-6.7-6.7c6.6-7.7,6.2-19.2-1-26.5c-7.6-7.6-20-7.6-27.6,0
		C2,9.4,0,14.3,0,19.5c0,5.2,2,10.1,5.7,13.8c3.7,3.7,8.6,5.7,13.8,5.7c4.7,0,9.2-1.7,12.7-4.7l6.7,6.7l-1,1c-1.5,1.5-1.5,4,0,5.5
		l15.4,15.4c0.7,0.7,1.7,1.1,2.7,1.1c1,0,2-0.4,2.7-1.1l4-4h0C64.4,57.3,64.4,54.8,62.9,53.3z M7.8,31.2C4.7,28.1,3,23.9,3,19.5
		C3,15.1,4.7,11,7.8,7.8C11.1,4.6,15.3,3,19.5,3c4.2,0,8.5,1.6,11.7,4.8c6.4,6.4,6.4,16.9,0,23.4c-3.1,3.1-7.3,4.8-11.7,4.8
		S11,34.3,7.8,31.2z M60.7,56.7l-4,4c-0.3,0.3-0.9,0.3-1.3,0L40.1,45.3c-0.2-0.2-0.3-0.4-0.3-0.6c0-0.2,0.1-0.5,0.3-0.6l4-4
		c0.2-0.2,0.4-0.3,0.6-0.3s0.5,0.1,0.6,0.3l15.4,15.4C61.1,55.8,61.1,56.3,60.7,56.7z"/>
	<path d="M24.3,11.5c-0.6,0.6-0.6,1.5,0,2.1c3,3,3,7.8,0,10.7c-0.6,0.6-0.6,1.5,0,2.1c0.3,0.3,0.7,0.4,1.1,0.4s0.8-0.1,1.1-0.4
		c4.1-4.1,4.1-10.8,0-15C25.9,10.9,24.9,10.9,24.3,11.5z"/>
</g>
</svg>
